<svg width="14" height="16" viewBox="0 0 14 16" fill="none" xmlns="http://www.w3.org/2000/svg">
<path d="M11.8634 7.27181L3.02587 1.97806C2.83686 1.86891 2.62256 1.81116 2.4043 1.81055C2.18604 1.80994 1.97142 1.86649 1.78179 1.97457C1.59217 2.08266 1.43416 2.23851 1.32347 2.42663C1.21278 2.61474 1.15327 2.82856 1.15087 3.04681L1.15087 13.6343C1.15327 13.8526 1.21278 14.0664 1.32346 14.2545C1.43415 14.4426 1.59217 14.5985 1.78179 14.7065C1.97142 14.8146 2.18603 14.8712 2.4043 14.8706C2.62256 14.87 2.83686 14.8122 3.02587 14.7031L11.8634 9.40931C12.0471 9.29789 12.1989 9.14101 12.3043 8.95381C12.4097 8.7666 12.4651 8.55539 12.4651 8.34056C12.4651 8.12572 12.4097 7.91452 12.3043 7.72731C12.1989 7.54011 12.0471 7.38323 11.8634 7.27181Z" fill="white" stroke="white" stroke-width="2" stroke-linecap="round" stroke-linejoin="round"/>
</svg>
