<svg width="11" height="11" viewBox="0 0 11 11" fill="none" xmlns="http://www.w3.org/2000/svg">
<path d="M9.16667 4.125H5.04167C4.53541 4.125 4.125 4.53541 4.125 5.04167V9.16667C4.125 9.67293 4.53541 10.0833 5.04167 10.0833H9.16667C9.67293 10.0833 10.0833 9.67293 10.0833 9.16667V5.04167C10.0833 4.53541 9.67293 4.125 9.16667 4.125Z" stroke="#727272" stroke-linecap="round" stroke-linejoin="round"/>
<path d="M2.29102 6.87501H1.83268C1.58957 6.87501 1.35641 6.77843 1.1845 6.60652C1.01259 6.43461 0.916016 6.20145 0.916016 5.95834V1.83334C0.916016 1.59022 1.01259 1.35707 1.1845 1.18516C1.35641 1.01325 1.58957 0.916672 1.83268 0.916672H5.95768C6.2008 0.916672 6.43396 1.01325 6.60586 1.18516C6.77777 1.35707 6.87435 1.59022 6.87435 1.83334V2.29167" stroke="#727272" stroke-linecap="round" stroke-linejoin="round"/>
</svg>
