<svg width="15" height="15" viewBox="0 0 15 15" fill="none" xmlns="http://www.w3.org/2000/svg">
<path d="M7.49998 0C3.35786 0 0 3.35786 0 7.49998C0 11.6421 3.35786 15 7.49998 15C11.6421 15 15 11.6421 15 7.49998C14.9956 3.35971 11.6403 0.00442592 7.49998 0ZM11.6287 5.20017L6.27159 10.5573C6.06238 10.7665 5.72328 10.7665 5.5141 10.5573L3.37123 8.41446C3.15841 8.20892 3.15251 7.86978 3.35805 7.65696C3.56359 7.44414 3.90272 7.43824 4.11554 7.64378C4.12 7.64811 4.12439 7.65248 4.12872 7.65696L5.89284 9.42108L10.8712 4.44268C11.0841 4.23714 11.4232 4.24304 11.6287 4.45583C11.8293 4.66344 11.8293 4.99256 11.6287 5.20017Z" fill="#00C851"/>
</svg>
